<?xml version="1.0" ?><svg id="Capa_1" style="enable-background:new 0 0 150 150;" version="1.1" viewBox="0 0 150 150" xml:space="preserve" xmlns="http://www.w3.org/2000/svg" xmlns:xlink="http://www.w3.org/1999/xlink"><style type="text/css">
	.st0{fill:#1A73E8;}
	.st1{fill:#EA4335;}
	.st2{fill:#4285F4;}
	.st3{fill:#FBBC04;}
	.st4{fill:#34A853;}
	.st5{fill:#4CAF50;}
	.st6{fill:#1E88E5;}
	.st7{fill:#E53935;}
	.st8{fill:#C62828;}
	.st9{fill:#FBC02D;}
	.st10{fill:#1565C0;}
	.st11{fill:#2E7D32;}
	.st12{fill:#F6B704;}
	.st13{fill:#E54335;}
	.st14{fill:#4280EF;}
	.st15{fill:#34A353;}
	.st16{clip-path:url(#SVGID_2_);}
	.st17{fill:#188038;}
	.st18{opacity:0.2;fill:#FFFFFF;enable-background:new    ;}
	.st19{opacity:0.3;fill:#0D652D;enable-background:new    ;}
	.st20{clip-path:url(#SVGID_4_);}
	.st21{opacity:0.3;fill:url(#_45_shadow_1_);enable-background:new    ;}
	.st22{clip-path:url(#SVGID_6_);}
	.st23{fill:#FA7B17;}
	.st24{opacity:0.3;fill:#174EA6;enable-background:new    ;}
	.st25{opacity:0.3;fill:#A50E0E;enable-background:new    ;}
	.st26{opacity:0.3;fill:#E37400;enable-background:new    ;}
	.st27{fill:url(#Finish_mask_1_);}
	.st28{fill:#FFFFFF;}
	.st29{fill:#0C9D58;}
	.st30{opacity:0.2;fill:#004D40;enable-background:new    ;}
	.st31{opacity:0.2;fill:#3E2723;enable-background:new    ;}
	.st32{fill:#FFC107;}
	.st33{opacity:0.2;fill:#1A237E;enable-background:new    ;}
	.st34{opacity:0.2;}
	.st35{fill:#1A237E;}
	.st36{fill:url(#SVGID_7_);}
	.st37{fill:#FBBC05;}
	.st38{clip-path:url(#SVGID_9_);fill:#E53935;}
	.st39{clip-path:url(#SVGID_11_);fill:#FBC02D;}
	.st40{clip-path:url(#SVGID_13_);fill:#E53935;}
	.st41{clip-path:url(#SVGID_15_);fill:#FBC02D;}
</style><g><g id="g17480" transform="translate(646.3034,236.3789)"><path class="st6" d="M-571.3-147.3c7.9,0,14.2-6.4,14.2-14.2l0-33.2c0-7.9-6.4-14.2-14.2-14.2    c-7.9,0-14.2,6.4-14.2,14.2v33.2C-585.5-153.7-579.1-147.3-571.3-147.3" id="path17482"/></g><g id="g17484" transform="translate(645.4803,233.1492)"><path class="st5" d="M-575.2-125.5L-575.2-125.5v14.9h9.5v-14.8c-1.5,0.2-3.1,0.2-4.7,0.2    C-572.1-125.1-573.6-125.2-575.2-125.5" id="path17486"/></g><g id="g17488" transform="translate(643.3809,235.9115)"><path class="st9" d="M-585.2-144.1c-4.2-4.3-6.9-9.5-6.9-16.6h-9.5c0,9.5,3.7,17.3,9.7,23.3l0.1-0.1    c0,0,0,0-0.1-0.1L-585.2-144.1z" id="path17490"/></g><g id="g17492" transform="translate(650.4081,238.79)"><path class="st7" d="M-551.7-163.6c0,11.9-10.5,23.6-23.7,23.6c-6.6,0-12.5-2.7-16.8-7l-0.1,0.1l-6.6,6.6    c0,0,0,0,0.1,0.1c4.9,4.9,11.4,8.2,18.7,9.3c1.6,0.2,3.2,0.4,4.8,0.4c1.6,0,3.2,0,4.7-0.2c16.1-2.3,28.4-16.1,28.4-32.7H-551.7z" id="path17494"/></g></g></svg>